<svg xmlns="http://www.w3.org/2000/svg" xmlns:xlink="http://www.w3.org/1999/xlink" width="430" zoomAndPan="magnify" viewBox="0 0 322.5 117.749996" height="157" preserveAspectRatio="xMidYMid meet" version="1.0"><defs><g/><clipPath id="b8d551c886"><path d="M 0.09375 0 L 321.910156 0 L 321.910156 117.5 L 0.09375 117.5 Z M 0.09375 0 " clip-rule="nonzero"/></clipPath><clipPath id="75fb49d5ec"><path d="M 48 50 L 71.941406 50 L 71.941406 71 L 48 71 Z M 48 50 " clip-rule="nonzero"/></clipPath><clipPath id="9a83b6319c"><path d="M 48 50 L 71.941406 50 L 71.941406 70 L 48 70 Z M 48 50 " clip-rule="nonzero"/></clipPath><clipPath id="bb311e799c"><path d="M 0.09375 61 L 44 61 L 44 98.660156 L 0.09375 98.660156 Z M 0.09375 61 " clip-rule="nonzero"/></clipPath><clipPath id="79bf36c0bc"><path d="M 0.09375 62 L 43 62 L 43 98.660156 L 0.09375 98.660156 Z M 0.09375 62 " clip-rule="nonzero"/></clipPath><clipPath id="0357a1060e"><path d="M 80.222656 50 L 285 50 L 285 69.199219 L 80.222656 69.199219 Z M 80.222656 50 " clip-rule="nonzero"/></clipPath></defs><g clip-path="url(#b8d551c886)"><path fill="#ffffff" d="M 0.09375 0 L 321.910156 0 L 321.910156 117.5 L 0.09375 117.5 Z M 0.09375 0 " fill-opacity="1" fill-rule="nonzero"/></g><path stroke-linecap="butt" transform="matrix(0.151229, 0, 0, 0.151229, -2.846515, 29.062788)" fill="none" stroke-linejoin="miter" d="M 181.268109 52.743162 C 199.710802 44.55502 220.090752 50.185982 237.551901 58.761576 C 257.027797 68.938636 276.916975 83.739284 284.898477 106.986376 C 288.488861 116.466023 286.138322 127.521307 279.964927 134.960376 C 275.134698 139.558134 268.238061 138.266629 262.426288 137.620877 C 249.252937 134.469604 241.193945 121.451233 230.939395 112.901469 C 222.07967 104.222555 212.625852 94.820398 200.614855 92.418199 C 189.895363 90.455111 180.596526 98.333292 173.725719 106.521434 C 163.367848 120.70216 156.858663 137.724197 151.744303 154.927045 C 148.43805 169.934334 141.412262 184.24421 142.264655 200.078062 C 141.257281 185.484055 137.511917 171.277499 137.150295 156.580171 C 136.478713 137.672537 138.622611 118.635752 142.910408 100.32221 C 150.736929 80.717163 162.851246 61.318756 181.268109 52.743162 Z M 181.268109 52.743162 " stroke="#000000" stroke-width="0.1" stroke-opacity="1" stroke-miterlimit="10"/><path fill="#afed00" d="M 24.566406 37.039062 C 27.355469 35.800781 30.4375 36.652344 33.078125 37.949219 C 36.023438 39.488281 39.03125 41.726562 40.238281 45.242188 C 40.78125 46.675781 40.425781 48.347656 39.492188 49.472656 C 38.761719 50.167969 37.71875 49.972656 36.839844 49.875 C 34.847656 49.398438 33.628906 47.429688 32.078125 46.136719 C 30.738281 44.824219 29.308594 43.402344 27.492188 43.039062 C 25.871094 42.742188 24.464844 43.933594 23.425781 45.171875 C 21.859375 47.316406 20.875 49.890625 20.101562 52.492188 C 19.601562 54.761719 18.539062 56.925781 18.667969 59.320312 C 18.515625 57.113281 17.949219 54.964844 17.894531 52.742188 C 17.792969 49.882812 18.117188 47.003906 18.765625 44.234375 C 19.949219 41.269531 21.78125 38.335938 24.566406 37.039062 Z M 24.566406 37.039062 " fill-opacity="1" fill-rule="nonzero"/><path stroke-linecap="butt" transform="matrix(0.151229, 0, 0, 0.151229, -2.846515, 29.062788)" fill="none" stroke-linejoin="miter" d="M 349.447901 65.296592 C 362.802064 63.565975 376.853639 69.403578 385.816684 80.562182 C 391.886758 88.905305 395.967914 99.366496 395.916254 110.215139 C 394.728069 123.36266 388.761316 136.381032 378.816727 143.949251 C 367.08986 153.196428 351.075197 155.107855 337.876015 148.70199 C 318.296798 140.436358 306.879893 112.384867 316.953633 91.204184 C 322.610425 76.790987 335.680457 67.41466 349.447901 65.296592 Z M 349.447901 65.296592 " stroke="#000000" stroke-width="0.1" stroke-opacity="1" stroke-miterlimit="10"/><path fill="#afed00" d="M 50 38.9375 C 52.019531 38.675781 54.144531 39.558594 55.5 41.246094 C 56.417969 42.507812 57.035156 44.089844 57.027344 45.730469 C 56.847656 47.71875 55.945312 49.6875 54.441406 50.832031 C 52.667969 52.230469 50.246094 52.519531 48.25 51.550781 C 45.289062 50.300781 43.5625 46.058594 45.085938 42.855469 C 45.941406 40.675781 47.917969 39.257812 50 38.9375 Z M 50 38.9375 " fill-opacity="1" fill-rule="nonzero"/><g clip-path="url(#75fb49d5ec)"><path stroke-linecap="butt" transform="matrix(0.151229, 0, 0, 0.151229, -2.846515, 29.062788)" fill="none" stroke-linejoin="miter" d="M 488.465508 141.831183 C 489.266241 141.779523 490.066975 141.753693 490.867708 141.779523 C 490.531916 149.580214 492.365854 157.380904 491.203499 165.181595 C 489.343732 178.535758 484.513503 191.115017 479.244162 203.203505 C 467.723937 231.797427 445.923331 255.40614 419.499137 266.513084 C 407.384819 271.265823 392.997452 270.904201 382.045489 262.793549 C 364.3777 249.955989 350.481105 230.376772 344.385201 207.775433 C 340.536516 195.583625 340.407365 180.937957 347.019871 169.882674 C 350.351955 165.026614 354.820562 159.602293 360.787316 159.963914 C 366.96071 160.609667 372.488352 164.742483 376.233716 170.115144 C 385.015951 182.926875 386.849888 199.613121 394.082317 213.303074 C 400.152391 222.136969 409.941999 232.623991 420.764812 227.45797 C 433.834843 221.310406 444.812636 210.875045 455.428808 200.646325 C 468.834631 187.808764 478.185128 170.683407 485.624197 153.041447 C 487.122343 149.502723 488.181377 145.731528 488.465508 141.831183 Z M 488.465508 141.831183 " stroke="#000000" stroke-width="0.1" stroke-opacity="1" stroke-miterlimit="10"/></g><g clip-path="url(#9a83b6319c)"><path fill="#afed00" d="M 71.023438 50.511719 C 71.144531 50.503906 71.265625 50.5 71.386719 50.503906 C 71.335938 51.683594 71.613281 52.863281 71.4375 54.042969 C 71.15625 56.0625 70.425781 57.964844 69.628906 59.792969 C 67.886719 64.117188 64.589844 67.6875 60.59375 69.367188 C 58.761719 70.085938 56.585938 70.03125 54.929688 68.804688 C 52.257812 66.863281 50.15625 63.902344 49.234375 60.484375 C 48.652344 58.640625 48.632812 56.425781 49.632812 54.753906 C 50.136719 54.019531 50.8125 53.199219 51.714844 53.253906 C 52.648438 53.351562 53.484375 53.976562 54.050781 54.789062 C 55.378906 56.726562 55.65625 59.25 56.75 61.320312 C 57.667969 62.65625 59.148438 64.242188 60.785156 63.460938 C 62.761719 62.53125 64.421875 60.953125 66.027344 59.40625 C 68.054688 57.464844 69.46875 54.875 70.59375 52.207031 C 70.820312 51.671875 70.980469 51.101562 71.023438 50.511719 Z M 71.023438 50.511719 " fill-opacity="1" fill-rule="nonzero"/></g><g clip-path="url(#bb311e799c)"><path stroke-linecap="butt" transform="matrix(0.151229, 0, 0, 0.151229, -2.846515, 29.062788)" fill="none" stroke-linejoin="miter" d="M 162.412135 223.815926 C 170.161165 216.506007 181.62973 217.20342 190.644436 220.871294 C 199.736632 225.159091 209.293769 228.465344 217.559402 234.561248 C 230.422792 243.730934 242.717921 253.985485 253.695714 265.789841 C 266.119993 276.974275 277.666048 289.424384 287.533147 303.398469 C 294.843066 312.929777 302.462946 324.088381 301.868854 337.287563 C 296.496193 356.530988 281.643884 370.608394 266.223313 380.036381 C 245.765873 391.608266 222.932063 396.206024 201.053967 403.283472 C 191.57432 406.693046 181.65556 407.932891 171.814292 409.095245 C 160.681518 409.766828 149.471254 412.324008 138.33848 410.128449 C 145.467588 404.368337 154.120672 401.811157 161.947193 397.54919 C 184.471042 386.726377 205.651725 372.881443 227.607311 360.741295 C 236.880318 355.730255 245.998344 349.35022 251.319345 339.17316 C 251.035214 336.925941 250.751082 334.704552 250.466951 332.483164 C 244.241897 325.431546 236.518696 320.420506 228.563025 316.158539 C 219.290019 324.682473 208.622187 331.165828 200.072423 340.671306 C 176.618691 360.069712 150.711099 375.283642 125.75922 392.073208 C 92.154258 413.073081 60.357403 437.560017 26.106688 457.320045 C 24.11777 458.094948 22.077192 458.714871 19.984954 459.179812 C 33.132476 443.24264 48.449726 429.681836 61.390607 413.538023 C 80.065771 391.763247 98.766764 369.988471 118.242661 349.117749 C 138.829252 327.084672 158.847581 304.380013 177.936026 280.71964 C 169.877034 272.454007 159.493333 264.834127 157.039474 252.151547 C 154.714764 242.54275 156.08376 231.229165 162.386305 223.815926 Z M 162.412135 223.815926 " stroke="#000000" stroke-width="0.1" stroke-opacity="1" stroke-miterlimit="10"/></g><g clip-path="url(#79bf36c0bc)"><path fill="#afed00" d="M 21.714844 62.910156 C 22.886719 61.804688 24.621094 61.910156 25.984375 62.464844 C 27.359375 63.113281 28.804688 63.613281 30.054688 64.535156 C 32 65.921875 33.859375 67.472656 35.519531 69.257812 C 37.398438 70.949219 39.144531 72.832031 40.636719 74.945312 C 41.742188 76.386719 42.894531 78.074219 42.804688 80.070312 C 41.992188 82.980469 39.746094 85.109375 37.414062 86.535156 C 34.320312 88.285156 30.867188 88.980469 27.558594 90.050781 C 26.125 90.566406 24.625 90.753906 23.136719 90.929688 C 21.453125 91.03125 19.757812 91.417969 18.074219 91.085938 C 19.152344 90.214844 20.460938 89.828125 21.644531 89.183594 C 25.050781 87.546875 28.253906 85.453125 31.574219 83.617188 C 32.976562 82.859375 34.355469 81.894531 35.160156 80.355469 C 35.117188 80.015625 35.074219 79.679688 35.03125 79.34375 C 34.089844 78.277344 32.921875 77.519531 31.71875 76.875 C 30.316406 78.164062 28.703125 79.144531 27.410156 80.582031 C 23.863281 83.515625 19.945312 85.816406 16.171875 88.355469 C 11.089844 91.53125 6.28125 95.234375 1.101562 98.222656 C 0.800781 98.339844 0.492188 98.433594 0.175781 98.503906 C 2.164062 96.09375 4.480469 94.042969 6.4375 91.601562 C 9.261719 88.308594 12.089844 85.015625 15.035156 81.859375 C 18.148438 78.527344 21.175781 75.09375 24.0625 71.515625 C 22.84375 70.265625 21.273438 69.113281 20.902344 67.195312 C 20.550781 65.742188 20.757812 64.03125 21.710938 62.910156 Z M 21.714844 62.910156 " fill-opacity="1" fill-rule="nonzero"/></g><g fill="#afed00" fill-opacity="1"><g transform="translate(79.931287, 70.726589)"><g><path d="M 16.4375 -29.609375 L 28.015625 -29.609375 L 31.515625 0 L 24.015625 0 L 23.328125 -5.59375 L 11 -5.59375 L 7.953125 0 L 0.421875 0 Z M 14.3125 -11.640625 L 22.578125 -11.640625 L 21.015625 -23.90625 Z M 14.3125 -11.640625 "/></g></g></g><g fill="#afed00" fill-opacity="1"><g transform="translate(111.057722, 70.726589)"><g><path d="M 14.3125 -23.5625 L 10.578125 -6.046875 L 20.484375 -6.046875 C 21.066406 -6.046875 21.613281 -6.257812 22.125 -6.6875 C 22.644531 -7.125 22.972656 -7.632812 23.109375 -8.21875 L 25.875 -21.390625 C 25.90625 -21.460938 25.921875 -21.535156 25.921875 -21.609375 C 25.921875 -21.691406 25.921875 -21.769531 25.921875 -21.84375 C 25.921875 -22.351562 25.757812 -22.765625 25.4375 -23.078125 C 25.125 -23.398438 24.710938 -23.5625 24.203125 -23.5625 Z M 8.40625 -29.609375 L 28.46875 -29.609375 C 29.988281 -29.609375 31.226562 -29.117188 32.1875 -28.140625 C 33.15625 -27.171875 33.640625 -25.960938 33.640625 -24.515625 C 33.640625 -24.335938 33.628906 -24.132812 33.609375 -23.90625 C 33.585938 -23.675781 33.550781 -23.457031 33.5 -23.25 L 29.875 -6.359375 C 29.644531 -5.191406 29.132812 -4.128906 28.34375 -3.171875 C 27.5625 -2.222656 26.628906 -1.457031 25.546875 -0.875 C 24.472656 -0.289062 23.351562 0 22.1875 0 L 2.125 0 Z M 8.40625 -29.609375 "/></g></g></g><g fill="#afed00" fill-opacity="1"><g transform="translate(140.928442, 70.726589)"><g><path d="M 14.3125 -23.5625 L 10.578125 -6.046875 L 20.484375 -6.046875 C 21.066406 -6.046875 21.613281 -6.257812 22.125 -6.6875 C 22.644531 -7.125 22.972656 -7.632812 23.109375 -8.21875 L 25.875 -21.390625 C 25.90625 -21.460938 25.921875 -21.535156 25.921875 -21.609375 C 25.921875 -21.691406 25.921875 -21.769531 25.921875 -21.84375 C 25.921875 -22.351562 25.757812 -22.765625 25.4375 -23.078125 C 25.125 -23.398438 24.710938 -23.5625 24.203125 -23.5625 Z M 8.40625 -29.609375 L 28.46875 -29.609375 C 29.988281 -29.609375 31.226562 -29.117188 32.1875 -28.140625 C 33.15625 -27.171875 33.640625 -25.960938 33.640625 -24.515625 C 33.640625 -24.335938 33.628906 -24.132812 33.609375 -23.90625 C 33.585938 -23.675781 33.550781 -23.457031 33.5 -23.25 L 29.875 -6.359375 C 29.644531 -5.191406 29.132812 -4.128906 28.34375 -3.171875 C 27.5625 -2.222656 26.628906 -1.457031 25.546875 -0.875 C 24.472656 -0.289062 23.351562 0 22.1875 0 L 2.125 0 Z M 8.40625 -29.609375 "/></g></g></g><g fill="#afed00" fill-opacity="1"><g transform="translate(170.799165, 70.726589)"><g><path d="M 16.4375 -29.609375 L 28.015625 -29.609375 L 31.515625 0 L 24.015625 0 L 23.328125 -5.59375 L 11 -5.59375 L 7.953125 0 L 0.421875 0 Z M 14.3125 -11.640625 L 22.578125 -11.640625 L 21.015625 -23.90625 Z M 14.3125 -11.640625 "/></g></g></g><g fill="#afed00" fill-opacity="1"><g transform="translate(201.925597, 70.726589)"><g><path d="M 8.40625 -29.609375 L 15.5625 -29.609375 L 10.578125 -6.046875 L 27.9375 -6.046875 L 26.640625 0 L 2.125 0 Z M 8.40625 -29.609375 "/></g></g></g><g fill="#afed00" fill-opacity="1"><g transform="translate(227.991119, 70.726589)"><g><path d="M 8.40625 -29.609375 L 15.5625 -29.609375 L 10.578125 -6.046875 L 27.9375 -6.046875 L 26.640625 0 L 2.125 0 Z M 8.40625 -29.609375 "/></g></g></g><g fill="#afed00" fill-opacity="1"><g transform="translate(254.056641, 70.726589)"><g><path d="M 16.4375 -29.609375 L 28.015625 -29.609375 L 31.515625 0 L 24.015625 0 L 23.328125 -5.59375 L 11 -5.59375 L 7.953125 0 L 0.421875 0 Z M 14.3125 -11.640625 L 22.578125 -11.640625 L 21.015625 -23.90625 Z M 14.3125 -11.640625 "/></g></g></g><g clip-path="url(#0357a1060e)"><path fill="#231f20" d="M 80.539062 69.078125 C 101.503906 53.722656 128.476562 50.925781 153.734375 52.425781 C 181.761719 54.09375 209.074219 61.527344 237.117188 63.058594 C 245.261719 63.5625 253.390625 63.410156 261.507812 62.601562 C 269.226562 61.777344 277.597656 60.628906 284.621094 57.191406 C 285.292969 56.859375 284.796875 55.925781 284.140625 56.050781 C 276.542969 57.535156 269.25 59.742188 261.507812 60.570312 C 254.214844 61.308594 246.902344 61.507812 239.578125 61.167969 C 224.242188 60.527344 209.0625 58.050781 193.941406 55.582031 C 168.601562 51.441406 142.628906 47.507812 117.082031 52.394531 C 103.679688 54.949219 91.035156 60.300781 80.355469 68.84375 C 80.226562 68.945312 80.398438 69.179688 80.539062 69.078125 Z M 80.539062 69.078125 " fill-opacity="1" fill-rule="nonzero"/></g><g fill="#ffffff" fill-opacity="1"><g transform="translate(139.789778, 93.604708)"><g><path d="M 3.34375 -14.203125 L 12.375 -14.203125 L 12.375 -12.34375 L 4.109375 -12.34375 C 3.878906 -12.34375 3.675781 -12.257812 3.5 -12.09375 C 3.332031 -11.9375 3.25 -11.738281 3.25 -11.5 L 3.25 -8.890625 C 3.25 -8.660156 3.332031 -8.457031 3.5 -8.28125 C 3.675781 -8.113281 3.878906 -8.03125 4.109375 -8.03125 L 10.75 -8.03125 C 11.320312 -8.03125 11.800781 -7.832031 12.1875 -7.4375 C 12.582031 -7.050781 12.78125 -6.570312 12.78125 -6 L 12.78125 -2.03125 C 12.78125 -1.46875 12.582031 -0.988281 12.1875 -0.59375 C 11.800781 -0.195312 11.320312 0 10.75 0 L 1.71875 0 L 1.71875 -1.859375 L 9.984375 -1.859375 C 10.222656 -1.859375 10.425781 -1.941406 10.59375 -2.109375 C 10.757812 -2.273438 10.84375 -2.472656 10.84375 -2.703125 L 10.84375 -5.3125 C 10.84375 -5.550781 10.757812 -5.753906 10.59375 -5.921875 C 10.425781 -6.085938 10.222656 -6.171875 9.984375 -6.171875 L 3.34375 -6.171875 C 2.78125 -6.171875 2.300781 -6.367188 1.90625 -6.765625 C 1.507812 -7.160156 1.3125 -7.632812 1.3125 -8.1875 L 1.3125 -12.171875 C 1.3125 -12.742188 1.507812 -13.222656 1.90625 -13.609375 C 2.300781 -14.003906 2.78125 -14.203125 3.34375 -14.203125 Z M 3.34375 -14.203125 "/></g></g></g><g fill="#ffffff" fill-opacity="1"><g transform="translate(158.435032, 93.604708)"><g><path d="M 1.3125 -14.203125 L 10.75 -14.203125 C 11.320312 -14.203125 11.800781 -14.003906 12.1875 -13.609375 C 12.582031 -13.222656 12.78125 -12.742188 12.78125 -12.171875 L 12.78125 -6.078125 C 12.78125 -5.515625 12.582031 -5.035156 12.1875 -4.640625 C 11.800781 -4.242188 11.320312 -4.046875 10.75 -4.046875 L 3.25 -4.046875 L 3.25 0 L 1.3125 0 Z M 3.25 -5.90625 L 9.984375 -5.90625 C 10.222656 -5.90625 10.425781 -5.988281 10.59375 -6.15625 C 10.757812 -6.320312 10.84375 -6.519531 10.84375 -6.75 L 10.84375 -11.546875 C 10.84375 -11.796875 10.757812 -12.003906 10.59375 -12.171875 C 10.425781 -12.335938 10.222656 -12.421875 9.984375 -12.421875 L 3.25 -12.421875 Z M 3.25 -5.90625 "/></g></g></g><g fill="#ffffff" fill-opacity="1"><g transform="translate(177.080287, 93.604708)"><g><path d="M 3.34375 -14.203125 L 10.75 -14.203125 C 11.113281 -14.203125 11.453125 -14.109375 11.765625 -13.921875 C 12.078125 -13.742188 12.320312 -13.5 12.5 -13.1875 C 12.6875 -12.875 12.78125 -12.535156 12.78125 -12.171875 L 12.78125 -2.03125 C 12.78125 -1.664062 12.6875 -1.328125 12.5 -1.015625 C 12.320312 -0.710938 12.078125 -0.46875 11.765625 -0.28125 C 11.453125 -0.09375 11.113281 0 10.75 0 L 3.34375 0 C 2.976562 0 2.640625 -0.09375 2.328125 -0.28125 C 2.023438 -0.46875 1.78125 -0.710938 1.59375 -1.015625 C 1.40625 -1.328125 1.3125 -1.664062 1.3125 -2.03125 L 1.3125 -12.171875 C 1.3125 -12.535156 1.40625 -12.875 1.59375 -13.1875 C 1.78125 -13.5 2.023438 -13.742188 2.328125 -13.921875 C 2.640625 -14.109375 2.976562 -14.203125 3.34375 -14.203125 Z M 4.109375 -12.34375 C 3.878906 -12.34375 3.675781 -12.257812 3.5 -12.09375 C 3.332031 -11.9375 3.25 -11.738281 3.25 -11.5 L 3.25 -2.703125 C 3.25 -2.472656 3.332031 -2.273438 3.5 -2.109375 C 3.675781 -1.941406 3.878906 -1.859375 4.109375 -1.859375 L 9.984375 -1.859375 C 10.222656 -1.859375 10.425781 -1.941406 10.59375 -2.109375 C 10.757812 -2.273438 10.84375 -2.472656 10.84375 -2.703125 L 10.84375 -11.5 C 10.84375 -11.738281 10.757812 -11.9375 10.59375 -12.09375 C 10.425781 -12.257812 10.222656 -12.34375 9.984375 -12.34375 Z M 4.109375 -12.34375 "/></g></g></g><g fill="#ffffff" fill-opacity="1"><g transform="translate(195.725542, 93.604708)"><g><path d="M 1.3125 -14.203125 L 10.75 -14.203125 C 11.320312 -14.203125 11.800781 -14.003906 12.1875 -13.609375 C 12.582031 -13.222656 12.78125 -12.742188 12.78125 -12.171875 L 12.78125 -6.953125 C 12.78125 -6.390625 12.582031 -5.90625 12.1875 -5.5 C 11.800781 -5.101562 11.320312 -4.90625 10.75 -4.90625 L 10.65625 -4.90625 L 13.875 0 L 11.53125 0 L 8.328125 -4.90625 L 3.25 -4.90625 L 3.25 0 L 1.3125 0 Z M 3.25 -6.78125 L 9.984375 -6.78125 C 10.222656 -6.78125 10.425781 -6.859375 10.59375 -7.015625 C 10.757812 -7.179688 10.84375 -7.378906 10.84375 -7.609375 L 10.84375 -11.5 C 10.84375 -11.738281 10.757812 -11.9375 10.59375 -12.09375 C 10.425781 -12.257812 10.222656 -12.34375 9.984375 -12.34375 L 3.25 -12.34375 Z M 3.25 -6.78125 "/></g></g></g><g fill="#ffffff" fill-opacity="1"><g transform="translate(214.243096, 93.604708)"><g><path d="M 0.203125 -14.203125 L 11.65625 -14.203125 L 11.65625 -12.34375 L 6.90625 -12.34375 L 6.90625 0 L 4.96875 0 L 4.96875 -12.34375 L 0.203125 -12.34375 Z M 0.203125 -14.203125 "/></g></g></g></svg>